<?xml version="1.0" standalone="no"?><svg xmlns="http://www.w3.org/2000/svg" viewBox="0 0 1440 320"><path fill="#007bff" fill-opacity="1" d="M0,256L40,245.3C80,235,160,213,240,197.3C320,181,400,171,480,186.7C560,203,640,245,720,240C800,235,880,181,960,181.3C1040,181,1120,235,1200,245.3C1280,256,1360,224,1400,208L1440,192L1440,320L1400,320C1360,320,1280,320,1200,320C1120,320,1040,320,960,320C880,320,800,320,720,320C640,320,560,320,480,320C400,320,320,320,240,320C160,320,80,320,40,320L0,320Z"></path></svg>